<svg width="98" height="32" viewBox="0 0 148 48" fill="none" xmlns="http://www.w3.org/2000/svg"><path d="M13.209 15.893c-.839.74-1.702 1.504-2.146 2.565.888 0 1.8.05 2.688 0 .839-.518 1.48-1.307 2.344-1.776 3.181-2.022 7.498-1.973 10.655.099.814.444 1.406 1.208 2.195 1.677.863.074 1.751 0 2.615.025l-.148-.47c-1.53-2.194-3.873-3.748-6.413-4.562-1.727-.592-3.577-.42-5.377-.395-2.319.198-4.563 1.332-6.413 2.837zm119.527.074c-1.184.641-2.491 1.43-3.009 2.737-.346 1.332.986 2.22 1.603 3.256-1.184.346-2.516.494-3.527 1.308-.937.962-.765 2.466-.617 3.675.247 1.282.592 2.663 1.53 3.625 1.134.987 2.589-.074 3.773-.394-.049 1.11-.172 2.244.05 3.354.271 1.209 1.554 1.702 2.639 1.998 1.554.345 3.28.543 4.76-.173 1.307-.764.715-2.466.789-3.7 1.332.42 2.763 1.333 4.193.84 1.11-.642 1.801-1.826 2.344-2.936.518-1.208 1.134-2.713.394-3.97-.74-.84-1.973-.864-2.984-1.21.641-.961 1.504-1.775 1.973-2.836.395-1.16-.419-2.27-1.085-3.132-1.085-1.258-2.491-2.516-4.218-2.566-1.307.173-1.702 1.604-2.516 2.442-.69-1.036-1.282-2.294-2.417-2.91-1.233-.493-2.565.05-3.675.592z" fill="#fff"/><path d="M19.745 17.915c0 .839 0 1.702.025 2.54-.69.124-1.381.075-2.072-.024-.222.814-.123 1.653-.123 2.467.74 0 1.48 0 2.22.024-.025 2.368-.025 4.76-.025 7.153-.025 1.16.468 2.442 1.554 3.01 1.159.616 2.565.345 3.675-.223.197-.814.394-1.652.592-2.466-.79.493-1.776.863-2.713.567-.494-.296-.543-.913-.543-1.43v-6.635h2.614c0-.79 0-1.579.025-2.368-.888 0-1.751 0-2.64-.025-.024-1.332 0-2.664 0-3.971a63.76 63.76 0 00-2.589 1.381zm14.577 0v15.317h2.565v-1.11c1.233 1.036 2.886 1.678 4.49 1.258 1.997-.419 3.502-2.195 3.921-4.143.42-2.048.32-4.267-.543-6.191-.715-1.628-2.367-2.812-4.168-2.787-1.381-.1-2.664.542-3.7 1.405V16.56c-.888.419-1.726.888-2.565 1.356zM.852 23.44c-1.209 2.245-1.135 5.155.27 7.301 1.308 1.973 3.775 2.886 6.069 2.738 1.578-.123 2.984-.987 3.995-2.17-.444-.617-.937-1.21-1.43-1.801-1.234 1.16-3.059 1.924-4.687 1.16-2.22-.84-3.009-3.75-1.973-5.773.765-1.652 2.861-2.565 4.588-1.948.79.222 1.455.765 2.047 1.307.444-.616 1.184-1.134 1.381-1.874-2.565-3.33-8.361-2.516-10.26 1.06zm47.061-2.047c.32.617.64 1.233.962 1.85 1.504-.69 3.33-1.135 4.908-.42 1.011.519 1.06 1.727 1.011 2.714a8.79 8.79 0 00-5.105-.173c-1.21.32-2.319 1.16-2.738 2.393-.543 1.578-.198 3.551 1.134 4.661 1.924 1.628 4.958 1.332 6.71-.419 0 .42 0 .814.024 1.233h2.565v-8.361c0-.79-.05-1.628-.42-2.343-.616-1.283-1.972-2.023-3.33-2.22-1.997-.271-4.069.024-5.721 1.085zm14.281.173c0-.247 0-.765.024-1.012-.863-.049-1.726-.074-2.59 0 .025 4.243 0 8.46 0 12.703h2.566c.024-2.516 0-5.056 0-7.572-.025-1.085.419-2.294 1.43-2.837.888-.394 2.047-.394 2.861.198.913.764.962 2.072 1.036 3.157.025 2.343 0 4.71 0 7.054.839 0 1.653 0 2.492-.025-.025-2.688 0-5.377-.025-8.09-.025-1.578-.493-3.354-1.875-4.267-1.85-1.06-4.39-.814-5.92.69zm10.63-.272c.247.666.568 1.308.864 1.949 1.504-.641 3.305-1.11 4.883-.42 1.036.494 1.11 1.727 1.061 2.714-1.43-.444-2.985-.592-4.464-.296-1.16.197-2.344.764-3.01 1.776-.863 1.356-.789 3.181 0 4.563.79 1.282 2.368 1.924 3.823 1.948 1.357.025 2.615-.616 3.626-1.48 0 .395 0 .79.025 1.184h2.565c0-2.96.025-5.92 0-8.88.05-1.602-.987-3.132-2.491-3.674-2.245-.839-4.785-.469-6.882.616zm14.207.296v-1.036c-.863 0-1.701 0-2.565.025v12.678h2.566v-7.054c0-.888.074-1.825.542-2.59.715-1.209 2.615-1.381 3.626-.469.69.765.74 1.85.764 2.812v7.326h2.566V25.98c0-.987.098-2.097.838-2.837.74-.666 1.875-.666 2.763-.296 1.011.568 1.159 1.826 1.208 2.861.025 2.54 0 5.057.025 7.597h2.541c0-2.614.024-5.204 0-7.818-.05-1.48-.222-3.108-1.308-4.218-1.036-1.012-2.59-1.012-3.946-.913-1.209.074-2.245.839-3.01 1.727-1.356-2.343-4.883-2.393-6.61-.494zm17.685 1.036c-1.134 1.8-1.381 4.095-.912 6.142.37 1.8 1.554 3.502 3.28 4.242 2.22.987 4.983.42 6.783-1.184a98.047 98.047 0 00-1.406-1.652c-1.332.912-3.182 1.406-4.661.567-1.086-.616-1.604-1.825-1.727-3.009 2.91.025 5.821 0 8.756 0 .247-2.146-.173-4.538-1.751-6.117-2.319-2.244-6.635-1.726-8.362 1.011zM12.617 20.53v12.702h2.664c-.05-.814-.099-1.603-.05-2.417.173-2.762-.074-5.525.05-8.263.024-.69 0-1.406-.099-2.096-.839-.025-1.702-.025-2.565.074zm14.947-.074c-.025 4.267 0 8.51 0 12.776.863 0 1.727 0 2.59.025.05-4.267 0-8.51.024-12.777-.863-.024-1.726-.024-2.614-.024zm91.211 6.215c-1.307 2.17-2.589 4.366-3.872 6.561.937 0 1.85 0 2.787.025.913-1.554 1.801-3.132 2.59-4.736.839 1.579 1.702 3.133 2.516 4.711a61.1 61.1 0 003.009 0c-1.283-2.195-2.59-4.39-3.897-6.585 1.11-2.072 2.565-3.996 3.478-6.167-.888.1-1.752 0-2.639.074-1.036 1.209-1.431 2.91-2.467 4.144-.666-1.406-1.48-2.738-2.17-4.144-.962 0-1.9-.024-2.837-.098.937 2.17 2.393 4.119 3.502 6.215zm15.12-6.931c1.357-1.01 3.083-1.331 4.761-1.159-.395.69-.765 1.381-1.036 2.146-1.036-1.036-2.368-.074-3.527.099-.543-.05-.617-.839-.198-1.085zm7.178 1.283c-.296-.345-.321-1.16.296-1.16 1.652.84 2.614 2.615 2.935 4.367a15.06 15.06 0 00-2.319-.346c.592-1.085-.345-2.022-.912-2.86zm-7.055 3.083c1.505-.296 2.763-1.356 3.651-2.59.715 1.332 2.121 2.27 3.576 2.615-1.085 1.11-1.504 2.713-1.356 4.218-1.357-.765-3.083-.617-4.489-.1.098-1.479-.444-3.008-1.382-4.143zm-2.491-1.85c.568.543 1.135 1.135 1.752 1.628-1.678.666-.247 2.886-1.53 3.799-.74-.494-.814-1.43-.863-2.245-.049-1.134.296-2.17.641-3.182zm8.83 6.684c1.752.37 1.875-2.269 3.478-2.17.025.37.124.74-.024 1.085-.543 1.48-1.727 2.615-3.059 3.404-.123-.765-.247-1.554-.395-2.318zm-7.522 1.11c.715-.32 1.43-.69 2.071-1.134.124 1.332 1.678 1.455 2.64 1.875.468.098.394.616.419.961-1.875.42-3.749-.493-5.13-1.701z" fill="#fff"/><path d="M13.209 15.893c1.85-1.505 4.07-2.64 6.462-2.861 1.8 0 3.65-.198 5.377.394 2.54.814 4.884 2.368 6.413 4.563l.148.469c-.863-.025-1.751.025-2.615-.025-.814-.444-1.38-1.208-2.195-1.677-3.157-2.072-7.473-2.121-10.655-.099-.863.469-1.505 1.258-2.343 1.776-.888.074-1.8.025-2.689 0 .395-1.036 1.283-1.8 2.097-2.54zm119.527.074c1.11-.543 2.442-1.06 3.65-.642 1.135.617 1.727 1.875 2.442 2.91.814-.838 1.209-2.268 2.516-2.44 1.727.048 3.133 1.306 4.218 2.564.666.888 1.504 1.973 1.085 3.133-.469 1.06-1.332 1.874-1.973 2.836 1.011.32 2.22.37 2.984 1.209.716 1.258.124 2.762-.394 3.97-.543 1.135-1.234 2.295-2.343 2.936-1.431.493-2.862-.395-4.194-.839-.098 1.209.494 2.935-.789 3.7-1.48.715-3.206.518-4.76.173-1.085-.271-2.368-.79-2.639-1.998-.222-1.11-.099-2.245-.05-3.354-1.208.32-2.639 1.38-3.773.394-.938-.962-1.283-2.343-1.53-3.626-.123-1.233-.296-2.713.617-3.675 1.011-.789 2.343-.937 3.527-1.307-.592-1.036-1.949-1.9-1.603-3.256.518-1.282 1.825-2.047 3.009-2.688zm1.159 3.774c-.419.246-.345 1.035.198 1.06 1.159-.148 2.515-1.134 3.527-.099a12.19 12.19 0 011.036-2.145c-1.653-.148-3.404.172-4.761 1.184zm7.178 1.282c.567.839 1.504 1.776.912 2.837.79.049 1.554.172 2.319.345-.345-1.751-1.307-3.527-2.935-4.366-.617.025-.592.839-.296 1.184zm-7.054 3.083c.961 1.135 1.504 2.664 1.356 4.144 1.431-.518 3.133-.666 4.489.099-.123-1.505.271-3.133 1.357-4.218-1.455-.345-2.861-1.258-3.577-2.615-.863 1.234-2.121 2.294-3.625 2.59zm-2.492-1.85c-.37 1.012-.715 2.072-.641 3.157.049.814.123 1.776.863 2.245 1.283-.888-.172-3.133 1.53-3.798-.617-.47-1.16-1.061-1.752-1.604zm8.83 6.685c.173.764.272 1.553.37 2.318 1.332-.814 2.516-1.924 3.059-3.404.148-.345.049-.74.025-1.085-1.604-.099-1.702 2.54-3.454 2.17zm-7.522 1.11c1.381 1.208 3.255 2.145 5.13 1.726-.025-.37.049-.863-.419-.962-.962-.444-2.516-.543-2.64-1.874a23.83 23.83 0 01-2.071 1.11z" fill="#EC2024"/><path d="M19.745 17.915a84.686 84.686 0 012.565-1.381v3.971c.888.025 1.752.025 2.64.025 0 .79 0 1.578-.025 2.368H22.31v6.634c0 .518.05 1.135.543 1.431.937.296 1.9-.099 2.713-.567-.197.814-.395 1.652-.592 2.466-1.11.592-2.516.864-3.675.222-1.085-.567-1.579-1.85-1.554-3.009 0-2.392-.025-4.76.025-7.153-.74-.024-1.48-.024-2.22-.024 0-.814-.099-1.653.123-2.467.69.099 1.382.148 2.072.025v-2.54zm14.577 0c.839-.468 1.677-.937 2.565-1.356.025 1.702 0 3.403 0 5.105 1.036-.863 2.319-1.529 3.7-1.405 1.8-.025 3.453 1.159 4.168 2.787.864 1.924.962 4.143.543 6.19-.444 1.95-1.924 3.725-3.922 4.144-1.603.444-3.255-.222-4.489-1.258v1.11h-2.565V17.915zm2.565 6.216v5.45c.666.667 1.456 1.308 2.417 1.53 1.184.345 2.59-.148 3.158-1.258.764-1.406.69-3.083.419-4.612-.247-1.233-1.135-2.54-2.491-2.59-1.382-.271-2.615.518-3.503 1.48zM.852 23.44c1.899-3.576 7.695-4.39 10.236-1.06-.198.764-.913 1.258-1.382 1.874-.592-.542-1.233-1.085-2.047-1.307-1.726-.617-3.798.296-4.588 1.948-1.035 2.023-.246 4.933 1.974 5.772 1.652.74 3.453 0 4.686-1.16.493.593.962 1.185 1.43 1.801-1.01 1.184-2.417 2.048-3.995 2.171-2.294.173-4.785-.765-6.068-2.738-1.381-2.121-1.455-5.056-.246-7.3zm47.061-2.047c1.652-1.06 3.724-1.357 5.648-1.06 1.356.197 2.738.937 3.33 2.22.394.715.419 1.553.444 2.342v8.337h-2.566c0-.419-.024-.814-.024-1.233-1.751 1.751-4.785 2.047-6.71.42-1.331-1.11-1.676-3.084-1.134-4.662.395-1.209 1.53-2.048 2.738-2.393 1.677-.444 3.478-.395 5.106.173.074-.987 0-2.195-1.011-2.713-1.554-.716-3.404-.272-4.909.419-.271-.617-.592-1.233-.912-1.85zm1.677 6.561c-.888.79-.568 2.417.468 2.935 1.579.79 3.552.123 4.613-1.209.148-.616.05-1.282.05-1.923-.74-.272-1.48-.469-2.27-.469-.962-.05-2.097-.074-2.861.666zm12.604-6.388c1.529-1.505 4.07-1.727 5.92-.69 1.405.912 1.85 2.688 1.874 4.266.025 2.689 0 5.377.025 8.09-.84.025-1.653.025-2.492.025v-7.054c-.074-1.085-.123-2.393-1.036-3.157-.814-.592-1.948-.617-2.86-.198-1.012.543-1.456 1.752-1.431 2.837-.025 2.516.024 5.056 0 7.572h-2.566c0-4.242.025-8.46 0-12.703.864-.074 1.727-.049 2.59 0-.024.247-.024.74-.024 1.012zm10.63-.272c2.097-1.085 4.637-1.455 6.857-.616 1.505.567 2.54 2.072 2.492 3.675.024 2.96 0 5.92 0 8.88h-2.566v-1.185c-1.011.839-2.269 1.505-3.626 1.48-1.48-.024-3.033-.666-3.823-1.948-.789-1.381-.863-3.207 0-4.563.666-1.012 1.85-1.579 3.01-1.776 1.48-.296 3.033-.148 4.464.296.05-.987-.025-2.22-1.06-2.713-1.58-.691-3.38-.222-4.884.419-.296-.641-.617-1.283-.864-1.949zm2.763 6.068c-.592.148-1.184.493-1.48 1.06-.395.913 0 2.122.937 2.516 1.382.642 3.034.173 4.12-.813.74-.543.443-1.58.394-2.344-1.233-.592-2.664-.592-3.971-.419zm11.444-5.772c1.727-1.874 5.254-1.85 6.61.444.765-.888 1.801-1.652 3.01-1.726 1.356-.099 2.91-.099 3.946.912 1.086 1.11 1.258 2.738 1.308 4.218.024 2.615 0 5.204 0 7.819h-2.541c-.025-2.54.025-5.056-.025-7.597-.049-1.036-.197-2.294-1.208-2.861-.888-.37-2.023-.37-2.763.296-.74.74-.838 1.85-.838 2.836v7.301h-2.566v-7.325c-.024-.962-.098-2.072-.764-2.812-1.036-.913-2.91-.74-3.626.469-.468.764-.543 1.701-.543 2.59v7.054h-2.565V20.53c.864-.025 1.702-.025 2.566-.025v1.085zm17.685 1.036c1.727-2.738 6.043-3.256 8.362-.962 1.578 1.579 1.998 3.971 1.776 6.117-2.911 0-5.846.025-8.756 0 .148 1.184.666 2.393 1.726 3.01 1.48.838 3.33.345 4.662-.568.469.543.937 1.11 1.406 1.653-1.801 1.603-4.563 2.17-6.783 1.159-1.727-.74-2.911-2.442-3.281-4.242-.493-2.072-.246-4.366.888-6.167zm2.368.79c-.567.591-.74 1.405-1.011 2.145.715.247 1.455.173 2.195.173 1.381-.025 2.763.025 4.144-.025-.123-.665-.222-1.356-.641-1.923-1.012-1.554-3.503-1.752-4.687-.37zM12.617 20.53c.863-.099 1.702-.099 2.565-.074.099.69.123 1.406.099 2.096-.148 2.763.098 5.525-.05 8.263-.049.814 0 1.603.05 2.417h-2.664V20.53zm14.947-.074c.863 0 1.727 0 2.614.024-.024 4.267.025 8.51-.024 12.777-.863-.025-1.727-.025-2.59-.025V20.456zm91.211 6.215c-1.109-2.096-2.54-4.045-3.502-6.215.937.074 1.899.098 2.837.098.715 1.406 1.504 2.738 2.17 4.144 1.036-1.258 1.431-2.935 2.467-4.144.887-.074 1.751.025 2.639-.074-.913 2.171-2.368 4.095-3.478 6.167a945.015 945.015 0 013.897 6.585 61.103 61.103 0 01-3.009 0c-.814-1.578-1.677-3.157-2.516-4.71-.789 1.627-1.677 3.181-2.59 4.735-.937-.025-1.874 0-2.787-.025 1.283-2.195 2.541-4.39 3.872-6.56z" fill="#104B84"/></svg>