<svg width="104" height="32" viewBox="0 0 130 40" xmlns="http://www.w3.org/2000/svg"><path d="M7.65 18.605l.66-.978c1.402-2.075.445-4.327-2.326-4.327H.102v13.51h5.683c4.99 0 6.497-5.806 1.865-8.205zM4.24 25.01h-.937v-9.943h1.726a1.567 1.567 0 0 1 1.552 1.537c.002.355-.119.7-.342.976l-1.135 1.678c1.186.279 1.97 1.177 1.97 2.855 0 2.036-1.22 2.897-2.835 2.897zM30.654 13.3l-3.048 10.268-2.564-8.502c-.48-1.526-.723-1.766-1.651-1.766h-2.375l4.41 13.51h3.252l4.116-13.51h-2.14zm7.274 0h-2.582l-4.122 13.51h2.102l.885-2.912h4.91l.9 2.913h3.669l-4.114-12.133c-.375-1.114-.588-1.378-1.648-1.378zM34.8 21.917l1.85-6.164 1.87 6.164H34.8zm-15.711-3.312l.663-.978c1.4-2.075.439-4.327-2.324-4.327h-5.887v13.51h5.68c4.996 0 6.497-5.806 1.868-8.205zm-3.402 6.404h-.976v-9.943h1.736a1.558 1.558 0 0 1 1.567 1.537c-.001.354-.12.697-.34.976l-1.128 1.693c1.177.279 1.963 1.177 1.963 2.855.003 2.02-1.21 2.882-2.822 2.882zm40.69-4.29a3.002 3.002 0 0 0-1.068-.814 4.113 4.113 0 0 0-.649-.258c.098-.044.198-.093.3-.147.45-.238.829-.59 1.1-1.02a3.264 3.264 0 0 0 .425-1.715 3.66 3.66 0 0 0-.342-1.633 2.495 2.495 0 0 0-.675-.871 3.552 3.552 0 0 0-1.498-.742 6.785 6.785 0 0 0-1.868-.219H48.2v13.51h4.203a7.455 7.455 0 0 0 1.859-.219 4.03 4.03 0 0 0 1.168-.459 3.12 3.12 0 0 0 1.234-1.243 3.84 3.84 0 0 0 .45-1.897 3.903 3.903 0 0 0-.25-1.471 2.807 2.807 0 0 0-.486-.802zm-6.74-6.13h2.447c.392-.002.784.036 1.168.113.25.049.493.135.718.256.31.144.571.377.75.669.198.368.293.783.276 1.2.012.375-.065.746-.225 1.085a1.64 1.64 0 0 1-.43.534 2.402 2.402 0 0 1-.99.502 5.26 5.26 0 0 1-1.312.15h-2.402v-4.51zm5.74 9.538c-.11.23-.263.44-.45.615a2.636 2.636 0 0 1-1.072.582 4.972 4.972 0 0 1-1.474.193h-2.744v-5.122h2.522c.499-.01.997.04 1.483.15.294.06.578.162.844.3a2 2 0 0 1 .835.805c.21.4.313.848.3 1.3.009.406-.075.81-.243 1.18v-.003zm73.455-7.524a3.66 3.66 0 0 0-1.954.573c-.363.224-.697.49-.994.796.004-.2-.005-.401-.027-.6a1.42 1.42 0 0 0-.057-.319 1.075 1.075 0 0 0-.105-.189 1.162 1.162 0 0 0-.126-.105.6.6 0 0 0-.21-.072c-.07 0-.136 0-.21-.018h-.661V26.81h1.396v-7.278c.36-.442.785-.827 1.26-1.14 0 0 .019 0 .034-.022a2.97 2.97 0 0 1 1.378-.486c.645-.063 1.087-.15 1.15-1.168a3.393 3.393 0 0 0-.874-.114zm-6.878 1.414a3.516 3.516 0 0 0-1.42-1.114 4.954 4.954 0 0 0-1.892-.345 4.503 4.503 0 0 0-1.801.363 4.302 4.302 0 0 0-1.985 1.82 6.125 6.125 0 0 0-.735 3.029 6.707 6.707 0 0 0 .3 2.101 4.23 4.23 0 0 0 1.61 2.231c.845.552 1.84.83 2.848.799a6.626 6.626 0 0 0 2.246-.36 4.254 4.254 0 0 0 1.69-1.06c-.654-.952-1.03-.577-1.783-.226a5.23 5.23 0 0 1-2.062.406 4.095 4.095 0 0 1-1.502-.25 2.618 2.618 0 0 1-.843-.489 2.948 2.948 0 0 1-.814-1.249 5.27 5.27 0 0 1-.273-1.67h7.31v-.69a6.81 6.81 0 0 0-.3-2.101 4.386 4.386 0 0 0-.594-1.195zm-6.39 2.789c.06-.419.17-.829.325-1.222a3.002 3.002 0 0 1 1.099-1.39c.493-.32 1.07-.48 1.657-.462.39-.008.778.051 1.147.174.245.089.473.22.673.387.32.28.56.64.7 1.042.162.474.256.97.278 1.471h-5.878zm-20.586-3.45a4.675 4.675 0 0 0-2.75-.804 5.155 5.155 0 0 0-1.928.351 4.287 4.287 0 0 0-2.065 1.801 5.96 5.96 0 0 0-.75 3.02 6.44 6.44 0 0 0 .342 2.141c.299.905.88 1.691 1.657 2.243a4.87 4.87 0 0 0 2.74.787 5.191 5.191 0 0 0 1.94-.36 4.203 4.203 0 0 0 2.06-1.802 5.806 5.806 0 0 0 .75-3.005 6.605 6.605 0 0 0-.33-2.123 4.461 4.461 0 0 0-1.666-2.249zm.348 6.086a3.24 3.24 0 0 1-1.14 1.672 3.27 3.27 0 0 1-1.958.58 3.603 3.603 0 0 1-1.396-.264 2.873 2.873 0 0 1-1.42-1.321 5.059 5.059 0 0 1-.514-2.402 5.641 5.641 0 0 1 .238-1.703 3.252 3.252 0 0 1 1.137-1.68 3.18 3.18 0 0 1 1.958-.601 3.39 3.39 0 0 1 1.39.26 2.862 2.862 0 0 1 1.414 1.34c.372.735.552 1.552.523 2.375.01.59-.069 1.177-.232 1.744zm-29.789-6.038a2.64 2.64 0 0 0-1.185-.663 5.858 5.858 0 0 0-1.556-.19 6.905 6.905 0 0 0-3.732.976c.517 1.105 1.072.835 1.802.529a4.708 4.708 0 0 1 1.852-.33c.328.015.654.06.973.135.178.047.349.119.507.213a1.4 1.4 0 0 1 .529.558c.14.296.206.622.192.95v1.443a10.316 10.316 0 0 0-2.306-.234 7.284 7.284 0 0 0-1.633.174 4.963 4.963 0 0 0-1.015.378 2.926 2.926 0 0 0-1.087 1.003 2.957 2.957 0 0 0-.39 1.531c-.007.448.076.892.243 1.306.247.56.677 1.02 1.22 1.303a3.903 3.903 0 0 0 1.897.43 4.759 4.759 0 0 0 2.038-.406 4.383 4.383 0 0 0 1.02-.69c.005.116.016.23.034.345a.75.75 0 0 0 .231.483c.087.073.19.122.3.145a1.2 1.2 0 0 0 .358.042h.486v-7.32a3.387 3.387 0 0 0-.252-1.366 2.135 2.135 0 0 0-.526-.745zm-.63 6.888a4.203 4.203 0 0 1-1.171 1.002 3.522 3.522 0 0 1-1.777.415 3.08 3.08 0 0 1-.844-.108 1.717 1.717 0 0 1-.507-.231 1.46 1.46 0 0 1-.523-.6 2.21 2.21 0 0 1-.195-.989 1.67 1.67 0 0 1 .195-.843 1.96 1.96 0 0 1 .385-.457c.274-.205.588-.352.921-.432.415-.095.839-.14 1.264-.135a10.43 10.43 0 0 1 2.252.255v2.123zM84.87 25.31a3.903 3.903 0 0 1-1.685.354 3.708 3.708 0 0 1-1.438-.255 2.9 2.9 0 0 1-.823-.523 3.345 3.345 0 0 1-.834-1.29 5.575 5.575 0 0 1-.3-1.895 5.077 5.077 0 0 1 .26-1.69 3.194 3.194 0 0 1 1.171-1.67 3.303 3.303 0 0 1 1.958-.58 3.942 3.942 0 0 1 1.537.27c.715.301 1.22.67 1.745-.431a4.855 4.855 0 0 0-3.267-1.054 5.32 5.32 0 0 0-1.94.357 4.35 4.35 0 0 0-2.101 1.771 5.761 5.761 0 0 0-.793 3.033c-.008.723.1 1.443.322 2.131.285.91.86 1.7 1.636 2.252.831.55 1.81.83 2.807.805a5.515 5.515 0 0 0 2.147-.409c.075-.024.144-.057.216-.084.417-.21.803-.476 1.147-.792-.6-1.066-1.07-.655-1.766-.3zm27.05-7.99a2.162 2.162 0 0 0-.9-.6 3.453 3.453 0 0 0-1.13-.171 5.627 5.627 0 0 0-2.26.495 7.836 7.836 0 0 0-1.528.934 2.138 2.138 0 0 0-.253-.475 2.276 2.276 0 0 0-.966-.747 3.252 3.252 0 0 0-1.201-.21 5.365 5.365 0 0 0-2.291.525c-.47.228-.92.496-1.345.802v-.021c.005-.18-.003-.36-.024-.538a1.282 1.282 0 0 0-.057-.3.372.372 0 0 0-.117-.18.267.267 0 0 0-.114-.096.492.492 0 0 0-.216-.07c-.073 0-.139 0-.21-.014h-.661V26.81h1.396v-7.566a8.31 8.31 0 0 1 1.501-.997 3.972 3.972 0 0 1 1.801-.447c.22-.006.439.019.652.072.134.034.261.088.378.162.162.123.29.285.37.471.11.287.162.594.15.9v7.405h1.405v-7.578a8.5 8.5 0 0 1 1.483-.982 3.903 3.903 0 0 1 1.777-.447c.233-.006.465.018.69.072.136.036.265.09.385.162.16.121.282.284.354.471.104.289.152.594.141.9v7.402h1.394v-7.656a3.282 3.282 0 0 0-.199-1.183 2.129 2.129 0 0 0-.405-.652zm-35.766-.003a2.138 2.138 0 0 0-.95-.6 3.864 3.864 0 0 0-1.149-.156 6.209 6.209 0 0 0-2.456.51 8.082 8.082 0 0 0-1.57.9v-.107a4.924 4.924 0 0 0-.024-.538 1.777 1.777 0 0 0-.066-.3.6.6 0 0 0-.114-.18.363.363 0 0 0-.12-.096.46.46 0 0 0-.21-.07c-.07 0-.133 0-.205-.014h-.66V26.81h1.402v-7.506c.525-.4 1.088-.75 1.681-1.042a4.726 4.726 0 0 1 1.982-.474c.239-.005.477.017.711.066.142.04.278.096.406.168.182.12.326.292.414.492.12.3.174.623.159.946v7.35h1.417v-7.434a3.819 3.819 0 0 0-.22-1.357 2.684 2.684 0 0 0-.428-.703z" fill="#004481"/></svg>