<svg xmlns="http://www.w3.org/2000/svg" id="svg1197" version="1.1" viewBox="0 0 16.933 16.933" height="64" width="64"><g id="layer1"><g transform="translate(-5.477 -9.551) scale(.26458)" id="g1263"><g transform="translate(11.589 30.21) scale(.44017)" id="g1271"><path id="path1201" d="M166.1 83.6c0-26.2-32.5-47.5-72.7-47.5S20.7 57.4 20.7 83.6v2.8c0 27.8 28.4 50.3 72.7 50.3 44.5 0 72.7-22.5 72.7-50.3z" class="st0"/><path id="path1203" d="M163.3 83.6c0 24.7-31.3 44.7-69.9 44.7-38.6 0-69.9-20-69.9-44.7 0-24.7 31.3-44.7 69.9-44.7 38.6 0 69.9 20 69.9 44.7z" fill="#e64152"/><path id="path1205" d="M70.2 69.5c0 .1-.7.8-.3 1.4 1.1 1.4 4.5 2.2 8 1.4 2-.5 4.7-2.6 7.2-4.6 2.8-2.2 5.5-4.4 8.2-5.3 1.9-.7 4-.8 6-.2 2 .7 3.9 1.8 5.5 3.2 4.8 3.6 24 20.4 27.3 23.3 9.9-4.3 20.2-7.6 30.7-9.9-1.4-8.6-6.6-16.5-14.6-23-11.1 4.7-24.6 7.1-37.8.6-.1 0-7.2-3.4-14.3-3.2-10.5.2-15.1 4.8-19.9 9.6z" class="st2"/><path id="path1207" d="M131.4 90.6c-.2-.2-22.6-19.8-27.7-23.6-2.9-2.2-4.6-2.8-6.3-3-1-.1-2 0-3 .3-2.3.7-5.4 2.7-8.1 4.9-2.7 2.2-5.5 4.4-8 4.9-3 .6-6.1.1-8.8-1.3-.6-.4-1.1-.9-1.5-1.6-.4-1-.1-2.2.8-2.9l6.2-6.7c.7-.7 1.4-1.4 2.2-2.1-1.9.3-3.8.7-5.6 1.3-2.1.7-4.3 1.2-6.6 1.3-2.3-.2-4.5-.6-6.7-1-6.1-1.6-12.1-3.8-17.8-6.5C31.6 61 25.7 69.2 24 78.2c1.3.3 3.3.9 4.1 1.1 19.9 4.4 26.1 9 27.2 9.9 2.4-2.7 6.6-3 9.3-.6.4.3.7.7 1 1.2 1.3-1.1 3-1.7 4.7-1.7 1 0 1.9.2 2.8.5 1.8.6 3.2 1.9 4 3.6.9-.4 1.8-.6 2.7-.6 1.1 0 2.3.3 3.3.7 3.7 1.6 4.2 5.2 3.9 7.9h.8c4.3 0 7.9 3.5 7.9 7.9 0 1.3-.4 2.6-1 3.7 1.2.7 4.2 2.2 6.8 1.8 2.1-.3 2.9-1 3.2-1.4.3-.4.4-.6.2-.8l-5.6-6.2s-.9-.9-.6-1.2c.3-.3.9.2 1.3.5 2.9 2.4 6.3 6 6.3 6s.3.5 1.6.7c1.6.3 3.2-.1 4.4-1 .4-.3.7-.6 1-1h-.1c.8-1.1.7-2.7-.2-3.7l-6.6-7.3s-.9-.9-.6-1.2c.3-.3.9.2 1.3.5 2.1 1.7 5 4.7 7.8 7.4.6.4 3 1.9 6.3-.2 1.5-.8 2.4-2.4 2.3-4.1-.1-1-.6-2-1.4-2.7l-8.9-9s-.9-.8-.6-1.2c.3-.4.9.2 1.3.5 2.8 2.4 10.6 9.4 10.6 9.4 1.9 1.2 4.3 1.2 6.1-.1 1.2-.7 1.9-1.9 2-3.2.3-1.4-.2-2.8-1.2-3.7z" class="st2"/><path id="path1209" d="M88 102c-1.4 0-2.9.8-3.1.7-.2-.1.1-.6.2-1s2-5.8-2.5-7.7c-3.4-1.5-5.5.2-6.2.9-.2.2-.3.2-.3-.1-.1-2.1-1.4-3.9-3.4-4.5-2.8-.9-5.9.2-7.6 2.7-.4-2.7-2.8-4.5-5.5-4.2-2.7.3-4.5 2.8-4.2 5.5.3 2.7 2.8 4.5 5.5 4.2 1-.1 2-.6 2.7-1.3v.2c-.7 3.1 1 6.2 4 7.4 1.6.6 3.4.3 4.7-.7.4-.3.4-.2.4.2-.2 1.1 0 3.5 3.4 4.9 1.7.8 3.8.5 5.1-.9.4-.4.6-.3.6.3.1 3.4 3 6 6.4 5.9 3.4-.1 6-3 5.9-6.4-.1-3.5-2.8-6.1-6.1-6.1z" class="st2"/><path id="path1211" d="M132.2 88.2c-6.9-6-22.8-19.9-27.1-23.1-1.7-1.4-3.6-2.5-5.6-3.3-.9-.3-1.8-.4-2.8-.4-1.2 0-2.4.2-3.5.6-2.8.9-5.6 3.1-8.3 5.2l-.1.1c-2.5 2-5.1 4-7 4.5-.9.2-1.7.3-2.6.3-2.2 0-4.2-.6-4.9-1.6-.1-.2 0-.4.2-.8l6.1-6.5c4.8-4.8 9.2-9.2 19.6-9.5h.5c4.7.2 9.3 1.3 13.6 3.2 5.7 2.9 12.1 4.4 18.5 4.4 7-.1 14-1.8 20.3-4.9-.8-.7-1.6-1.3-2.5-2-5.6 2.5-11.7 3.9-17.8 4-6 0-11.9-1.5-17.3-4.2-4.7-2.1-9.7-3.3-14.8-3.4h-.6c-8.7.2-13.6 3.3-16.8 6-2.9.2-5.7.7-8.4 1.5-1.9.6-3.9 1-5.9 1.1-.8 0-2.1-.1-2.2-.1-2.1-.1-12.8-2.7-21.3-5.9-.9.6-1.7 1.2-2.5 1.9 8.9 3.6 19.7 6.4 23.1 6.6.9.1 2 .2 3 .2 2.3-.1 4.5-.5 6.7-1.2 1.3-.4 2.7-.8 4.2-1l-1.2 1.2-6.3 6.9c-1 .8-1.3 2.2-.8 3.4.4.7.9 1.4 1.6 1.8 2 1.1 4.3 1.7 6.5 1.7.9 0 1.8-.1 2.6-.3 2.6-.6 5.3-2.7 8.2-5 2.3-1.8 5.5-4.1 8-4.8.7-.2 1.5-.3 2.2-.3h.6c1.6.2 3.2.8 6.1 2.9 5.1 3.8 27.4 23.4 27.7 23.6.9.9 1.4 2.1 1.3 3.3-.1 1.2-.8 2.3-1.8 2.9-.9.6-1.9.9-2.9.9-.9 0-1.8-.3-2.6-.8-.1-.1-7.8-7.1-10.6-9.5-.4-.4-.8-.6-1.3-.7-.2 0-.4.1-.6.3-.4.6 0 1.3.6 1.8l8.9 9c.7.7 1.1 1.5 1.2 2.4 0 1.5-.8 3-2.1 3.7-.9.6-2 1-3.2 1-.9 0-1.8-.3-2.6-.8l-1.3-1.3c-2.3-2.3-4.8-4.7-6.6-6.2-.4-.4-.8-.6-1.3-.7-.2 0-.4.1-.6.2-.2.2-.3.6.2 1.3.1.2.3.4.5.5l6.5 7.3c.8.9.8 2.2.2 3.1l-.2.3-.6.6c-.9.7-2 1-3.2 1-.3 0-.6 0-.9-.1-.5 0-.9-.2-1.3-.5l-.1-.1c-.3-.4-3.7-3.7-6.4-6-.3-.4-.8-.6-1.3-.7-.2 0-.4.1-.6.3-.5.6.3 1.5.6 1.8l5.6 6.2c0 .1-.1.3-.2.4-.2.3-.9 1-2.9 1.2h-.7c-1.9-.1-3.8-.7-5.5-1.6 1.9-4.2.1-9.1-4.1-11-1.1-.5-2.2-.7-3.4-.8h-.3c.2-2.1-.2-6.1-4.2-7.8-1.1-.5-2.3-.7-3.5-.8-.9 0-1.7.2-2.6.5-.8-1.6-2.3-2.9-4.1-3.5-1-.3-2-.5-3-.5-1.7 0-3.3.5-4.7 1.5-2.4-3-6.8-3.5-9.8-1.1-.2.2-.4.3-.6.5-1.7-1.3-8.6-5.7-27-9.9-.9-.2-2.9-.8-4.2-1.2-.2 1-.4 2-.5 3l4.1 1c18.8 4.2 25 8.5 26.1 9.3-.4.9-.5 1.8-.5 2.7 0 3.9 3.1 7 7 7.1.4 0 .9 0 1.3-.1.6 2.8 2.6 5.2 5.3 6.2.8.3 1.7.5 2.5.5.5 0 1.1-.1 1.6-.2 1.3 2.8 4.1 4.6 7.2 4.7.7 0 1.5-.1 2.2-.4 1.7 4.3 6.6 6.3 10.8 4.6 1.1-.4 2.1-1.1 2.9-2 2.1 1.2 4.5 2 7 2.1.4 0 .7 0 1.1-.1 2.8-.4 4.2-1.5 4.8-2.3.1-.2.2-.3.3-.5.7.2 1.5.3 2.3.3 1.7 0 3.3-.6 4.6-1.6 1.4-.9 2.3-2.3 2.7-3.9v-.1c.5.1 1 .2 1.5.2 1.7 0 3.3-.5 4.7-1.5 2.1-1.2 3.4-3.5 3.3-6 2.1.4 4.2 0 5.9-1.2 1.7-1.1 2.9-2.9 3-5 .1-1.4-.3-2.8-1-4 9.4-3.8 19.1-6.9 29-9.1-.1-1-.2-2-.4-3-10.5 2.5-20.6 5.9-30.5 10.1zM88 113.8c-3 0-5.6-2.4-5.7-5.4 0-.3 0-.9-.6-.9-.3 0-.5.2-.7.4-.7.8-1.7 1.2-2.8 1.3-.6 0-1.3-.1-1.8-.4-3.2-1.3-3.3-3.5-3.2-4.4.1-.2 0-.5-.1-.7l-.2-.2h-.2c-.2 0-.4.1-.6.2-.8.6-1.8 1-2.8 1-.5 0-1-.1-1.5-.3-2.8-1.1-4.4-4-3.7-6.9 0-.2 0-.4-.2-.6l-.3-.2-.3.3c-.8.8-1.9 1.3-3.1 1.2-2.5 0-4.5-2-4.5-4.4 0-2.5 2-4.5 4.4-4.5 2.2 0 4.1 1.7 4.4 3.9l.2 1.2.7-1c1.2-1.7 3.1-2.8 5.2-2.8.7 0 1.3.1 1.9.3 1.8.6 3.1 2.3 3.1 4.2 0 .6.4.6.5.6.2 0 .4-.1.5-.3.8-.9 2-1.4 3.2-1.4.8 0 1.7.2 2.4.6 4.2 1.8 2.3 7.1 2.2 7.2-.4.9-.4 1.3 0 1.5l.2.1h.4c.3 0 .6-.1.8-.2.7-.3 1.5-.4 2.2-.5 3.1-.1 5.8 2.3 5.9 5.5.1 3.1-2.3 5.8-5.5 5.9 0-.3-.2-.3-.4-.3z" class="st0"/></g></g></g><style type="text/css" id="style1199">.st0{fill:#253c7e}.st2{fill:#fff}</style></svg>